{
	"patcher" : 	{
		"fileversion" : 1,
		"appversion" : 		{
			"major" : 8,
			"minor" : 0,
			"revision" : 4,
			"architecture" : "x64",
			"modernui" : 1
		}
,
		"classnamespace" : "box",
		"rect" : [ 59.0, 104.0, 1266.0, 854.0 ],
		"bglocked" : 0,
		"openinpresentation" : 0,
		"default_fontsize" : 12.0,
		"default_fontface" : 0,
		"default_fontname" : "Arial",
		"gridonopen" : 1,
		"gridsize" : [ 15.0, 15.0 ],
		"gridsnaponopen" : 1,
		"objectsnaponopen" : 1,
		"statusbarvisible" : 2,
		"toolbarvisible" : 1,
		"lefttoolbarpinned" : 0,
		"toptoolbarpinned" : 0,
		"righttoolbarpinned" : 0,
		"bottomtoolbarpinned" : 0,
		"toolbars_unpinned_last_save" : 0,
		"tallnewobj" : 0,
		"boxanimatetime" : 200,
		"enablehscroll" : 1,
		"enablevscroll" : 1,
		"devicewidth" : 0.0,
		"description" : "",
		"digest" : "",
		"tags" : "",
		"style" : "",
		"subpatcher_template" : "",
		"boxes" : [ 			{
				"box" : 				{
					"id" : "obj-2",
					"linecount" : 15,
					"maxclass" : "message",
					"numinlets" : 2,
					"numoutlets" : 1,
					"outlettype" : [ "" ],
					"patching_rect" : [ 460.300005376338959, 448.0, 620.0, 210.0 ],
					"text" : "\"5.1 1.85 1.46 0.72 2.73 2.3 1.91 0.75 1.55 1.8 1.62 1.14 2.2 1 4.8 4.9 0.55 1.1 5.1 1.2 5 1.4 4.1 5.4 2.5 1.7 0.9 4.2 1.59 4.7 5.3 -0.5 0.9 0.75 4.2 1.4 4.3 0.9 2 2.14 1.4 5 4.8 2.8 2.9 0.66 0.75 1.1 1.1 4 0.9 1.14 0.6 2.05 1.18 0.61 1.31 1.79 4.9 1.55 1.5 4.6 1.72 4.3 0.52 4.9 0.8 5.3 4.4 4.3 1.12 1.02 4.3 -0.2 0.1 5.4 0.3 2.06 2.3 1.7 4.4 1.79 1.19 0.88 0.8 0.38 1.5 1.64 1.62 0.53 2.4 1.42 5 3.2 0.74 1.8 0.86 1.9 0.7 4.3 1.6 0.82 1.5 1.41 4.1 1.24 1.44 2 0.5 0.46 4.4 1.9 2.1 3.5 0.96 1.1 1.7 5 5 2.76 0.9 0.43 0.42 1.79 4.5 0.4 1.31 3.2 1.85 4.4 0.76 4.1 2.6 2.28 2 1.13 0.23 1.83 0.58 4.5 1.4 0.55 4.6 1.91 2.6 2 0.88 1.8 2 1.09 5.1 1.4 0.87 2.67 4.3 2.16 4.1 4.5 1.4 1.15 1.01 2.7 4.5 0.9 1.9 1.82 1.07 0.8 0.6 4.2 0.84 2.14 5 0.4 1.45 1.88 5.1 4.4 1.4 2.1 1.6 0.69 2.61 4.5 4.7 1.76 1.2 0.54 0.52 4.4 4.5 0.53 2.41 0.93 5.1 5.7 2.12 4.1 1.4 0.88 0.48 0.2 4 1.16 1.75 0.99 3.2 0.64 1.53 4.8 1.09 0.41 0.33 4.9 1.04 0.9 1.09 1.2 2.51 6.1 4.5 1.9 1 5.6 0.8 0.97 5.8 2.38 1.3 0.8 0.26 1.1 1.77 2.2 2.6 3.3 2.5 0.37 1.5 1.7 4.3 2.5 1.3 3 0.35 1.1 3.9 0.32 1.1 1.3 1.1 1.46 0.38 1.4 0 1.5 1.32 0.4 0.61 0.3 1.3 0.52 0.26 0.23 0.4 0.78 0.65 0.9 0.5 0 0.71 1.16 5 1.8 2.72 0.7 3.1 0.56 1.6 2.7 0.65 1.3 0.6 0 4.5 0.59 0.4 0.8 2.5 1.02 0.78 2.2 1.7 1.6 1.2 0.69 0.8 0.8 2 4.6 4.6 2.05 4.3 0.36 1.25 1.41 1.39 0.38 2.16 1.16 0.75 1.18 0.72 0.29 1.63 1.35 1.86 1.72 1.33 4.9 1.86 5.7 0.69 0.15 0.06 1.5 1.64 1.22 1.31 1.17 0.68 3.2 0.18 0.6 1.24 1.2 0.8 1.25 2.45 1.01 1.97 1.2 2.78 2.91 1.7 1.82 4.9 4.7 5 0.3 0 -0.9 1.01 5.1 4.2 0.88 4.4 0.62 0.76 5.9 4.4 2.2 4.5 0.96 0.56 0.72 0.76 5 2.9 1.22 0.94 0.5 4.3 2 0.37 4.8 2.7 2.8 1.7 4.3 0.51 0.7 2.04 0.6 4.8 1.3 6.7 2 4.4 0.87 0.44 4.4 2.05 1.3 4.9 4.5 0.57 \""
				}

			}
, 			{
				"box" : 				{
					"fontname" : "Trek TNG Credits",
					"fontsize" : 24.0,
					"id" : "obj-34",
					"linecount" : 7,
					"maxclass" : "comment",
					"numinlets" : 1,
					"numoutlets" : 0,
					"patching_rect" : [ 1001.300005376338959, 6.400000929832458, 361.0, 226.0 ],
					"text" : "Instructions\n1) Press \"script start\"\n2) Select a year of earthquakes\n3) Select a sonification type\n4) Turn on the DAC\n5) Turn on the clock"
				}

			}
, 			{
				"box" : 				{
					"fontname" : "Trek TNG Credits",
					"fontsize" : 14.0,
					"id" : "obj-32",
					"maxclass" : "newobj",
					"numinlets" : 0,
					"numoutlets" : 1,
					"outlettype" : [ "" ],
					"patching_rect" : [ 460.300005376338959, 82.0, 77.0, 27.0 ],
					"text" : "r toMULTI"
				}

			}
, 			{
				"box" : 				{
					"fontname" : "Trek TNG Credits",
					"fontsize" : 14.0,
					"id" : "obj-31",
					"maxclass" : "newobj",
					"numinlets" : 1,
					"numoutlets" : 0,
					"patching_rect" : [ 42.300005376338959, 423.706298999999944, 78.0, 27.0 ],
					"text" : "s toMULTI"
				}

			}
, 			{
				"box" : 				{
					"id" : "obj-14",
					"maxclass" : "newobj",
					"numinlets" : 1,
					"numoutlets" : 1,
					"outlettype" : [ "" ],
					"patching_rect" : [ 460.300005376338959, 111.793701000000056, 71.0, 22.0 ],
					"text" : "fromsymbol"
				}

			}
, 			{
				"box" : 				{
					"candicane2" : [ 0.145098, 0.203922, 0.356863, 1.0 ],
					"candicane3" : [ 0.290196, 0.411765, 0.713726, 1.0 ],
					"candicane4" : [ 0.439216, 0.619608, 0.070588, 1.0 ],
					"candicane5" : [ 0.584314, 0.827451, 0.431373, 1.0 ],
					"candicane6" : [ 0.733333, 0.035294, 0.788235, 1.0 ],
					"candicane7" : [ 0.878431, 0.243137, 0.145098, 1.0 ],
					"candicane8" : [ 0.027451, 0.447059, 0.501961, 1.0 ],
					"contdata" : 1,
					"id" : "obj-28",
					"maxclass" : "multislider",
					"numinlets" : 1,
					"numoutlets" : 2,
					"outlettype" : [ "", "" ],
					"parameter_enable" : 0,
					"patching_rect" : [ 460.300005376338959, 135.793701000000056, 516.0, 190.0 ],
					"peakcolor" : [ 0.498039, 0.498039, 0.498039, 1.0 ],
					"setminmax" : [ 0.0, 10.0 ],
					"size" : 397
				}

			}
, 			{
				"box" : 				{
					"fontname" : "Trek TNG Credits",
					"fontsize" : 24.0,
					"id" : "obj-19",
					"maxclass" : "comment",
					"numinlets" : 1,
					"numoutlets" : 0,
					"patching_rect" : [ 5.800005376338959, 133.0, 33.0, 38.0 ],
					"text" : "2"
				}

			}
, 			{
				"box" : 				{
					"fontname" : "Trek TNG Credits",
					"fontsize" : 24.0,
					"id" : "obj-4",
					"maxclass" : "comment",
					"numinlets" : 1,
					"numoutlets" : 0,
					"patching_rect" : [ 5.800005376338959, 82.0, 33.0, 38.0 ],
					"text" : "1"
				}

			}
, 			{
				"box" : 				{
					"fontname" : "Trek TNG Credits",
					"fontsize" : 24.0,
					"id" : "obj-107",
					"linecount" : 2,
					"maxclass" : "comment",
					"numinlets" : 1,
					"numoutlets" : 0,
					"patching_rect" : [ 5.800005376338959, 6.400000929832458, 431.0, 69.0 ],
					"text" : "usgs: Use the USGS API to sonify earthquake data."
				}

			}
, 			{
				"box" : 				{
					"fontname" : "Trek TNG Credits",
					"fontsize" : 24.0,
					"id" : "obj-12",
					"maxclass" : "message",
					"numinlets" : 2,
					"numoutlets" : 1,
					"outlettype" : [ "" ],
					"patching_rect" : [ 201.300005376338959, 82.0, 149.0, 40.0 ],
					"text" : "script stop",
					"textjustification" : 1
				}

			}
, 			{
				"box" : 				{
					"fontname" : "Trek TNG Credits",
					"fontsize" : 24.0,
					"id" : "obj-13",
					"maxclass" : "message",
					"numinlets" : 2,
					"numoutlets" : 1,
					"outlettype" : [ "" ],
					"patching_rect" : [ 42.300005376338959, 82.0, 155.0, 40.0 ],
					"text" : "script start",
					"textjustification" : 1
				}

			}
, 			{
				"box" : 				{
					"fontname" : "Trek TNG Credits",
					"fontsize" : 14.0,
					"id" : "obj-15",
					"maxclass" : "newobj",
					"numinlets" : 1,
					"numoutlets" : 2,
					"outlettype" : [ "", "" ],
					"patching_rect" : [ 42.300005376338959, 394.400000929832458, 141.0, 27.0 ],
					"saved_object_attributes" : 					{
						"autostart" : 0,
						"defer" : 0,
						"node_bin_path" : "",
						"npm_bin_path" : "",
						"watch" : 0
					}
,
					"text" : "node.script usgs.js"
				}

			}
, 			{
				"box" : 				{
					"fontname" : "Trek TNG Credits",
					"fontsize" : 24.0,
					"id" : "obj-27",
					"maxclass" : "message",
					"numinlets" : 2,
					"numoutlets" : 1,
					"outlettype" : [ "" ],
					"patching_rect" : [ 138.999998092651367, 343.206298999999944, 320.0, 40.0 ],
					"text" : "usgs 2014-10-31 2014-11-01",
					"textjustification" : 1
				}

			}
, 			{
				"box" : 				{
					"fontname" : "Trek TNG Credits",
					"fontsize" : 24.0,
					"id" : "obj-26",
					"maxclass" : "message",
					"numinlets" : 2,
					"numoutlets" : 1,
					"outlettype" : [ "" ],
					"patching_rect" : [ 123.999998092651367, 301.206298999999944, 320.0, 40.0 ],
					"text" : "usgs 2015-10-31 2015-11-01",
					"textjustification" : 1
				}

			}
, 			{
				"box" : 				{
					"fontname" : "Trek TNG Credits",
					"fontsize" : 24.0,
					"id" : "obj-25",
					"maxclass" : "message",
					"numinlets" : 2,
					"numoutlets" : 1,
					"outlettype" : [ "" ],
					"patching_rect" : [ 93.999998092651367, 217.0, 320.0, 40.0 ],
					"text" : "usgs 2017-10-31 2017-11-01",
					"textjustification" : 1
				}

			}
, 			{
				"box" : 				{
					"fontname" : "Trek TNG Credits",
					"fontsize" : 24.0,
					"id" : "obj-24",
					"maxclass" : "message",
					"numinlets" : 2,
					"numoutlets" : 1,
					"outlettype" : [ "" ],
					"patching_rect" : [ 78.999998092651367, 175.0, 320.0, 40.0 ],
					"text" : "usgs 2018-10-31 2018-11-01",
					"textjustification" : 1
				}

			}
, 			{
				"box" : 				{
					"fontname" : "Trek TNG Credits",
					"fontsize" : 24.0,
					"id" : "obj-23",
					"maxclass" : "message",
					"numinlets" : 2,
					"numoutlets" : 1,
					"outlettype" : [ "" ],
					"patching_rect" : [ 108.999998092651367, 259.206298999999944, 319.0, 40.0 ],
					"text" : "usgs 2016-10-31 2016-11-01",
					"textjustification" : 1
				}

			}
, 			{
				"box" : 				{
					"fontname" : "Trek TNG Credits",
					"fontsize" : 24.0,
					"id" : "obj-11",
					"maxclass" : "message",
					"numinlets" : 2,
					"numoutlets" : 1,
					"outlettype" : [ "" ],
					"patching_rect" : [ 63.999998092651367, 133.0, 320.0, 40.0 ],
					"text" : "usgs 2019-10-31 2019-11-01",
					"textjustification" : 1
				}

			}
, 			{
				"box" : 				{
					"bgmode" : 0,
					"border" : 0,
					"clickthrough" : 0,
					"enablehscroll" : 0,
					"enablevscroll" : 0,
					"id" : "obj-5",
					"lockeddragscroll" : 0,
					"maxclass" : "bpatcher",
					"name" : "n4m.monitor.maxpat",
					"numinlets" : 1,
					"numoutlets" : 1,
					"offset" : [ 0.0, 0.0 ],
					"outlettype" : [ "bang" ],
					"patching_rect" : [ 42.300005376338959, 494.706298999999944, 400.0, 220.0 ],
					"viewvisibility" : 1
				}

			}
 ],
		"lines" : [ 			{
				"patchline" : 				{
					"destination" : [ "obj-15", 0 ],
					"midpoints" : [ 73.499998092651367, 388.200000464916229, 51.800005376338959, 388.200000464916229 ],
					"source" : [ "obj-11", 0 ]
				}

			}
, 			{
				"patchline" : 				{
					"destination" : [ "obj-15", 0 ],
					"midpoints" : [ 210.800005376338959, 127.0, 51.800005376338959, 127.0 ],
					"source" : [ "obj-12", 0 ]
				}

			}
, 			{
				"patchline" : 				{
					"destination" : [ "obj-15", 0 ],
					"midpoints" : [ 51.800005376338959, 128.200000464916229, 51.800005376338959, 128.200000464916229 ],
					"source" : [ "obj-13", 0 ]
				}

			}
, 			{
				"patchline" : 				{
					"destination" : [ "obj-28", 0 ],
					"source" : [ "obj-14", 0 ]
				}

			}
, 			{
				"patchline" : 				{
					"destination" : [ "obj-2", 1 ],
					"order" : 0,
					"source" : [ "obj-15", 0 ]
				}

			}
, 			{
				"patchline" : 				{
					"destination" : [ "obj-31", 0 ],
					"order" : 1,
					"source" : [ "obj-15", 0 ]
				}

			}
, 			{
				"patchline" : 				{
					"destination" : [ "obj-5", 0 ],
					"source" : [ "obj-15", 1 ]
				}

			}
, 			{
				"patchline" : 				{
					"destination" : [ "obj-15", 0 ],
					"midpoints" : [ 118.499998092651367, 389.303149964916201, 51.800005376338959, 389.303149964916201 ],
					"source" : [ "obj-23", 0 ]
				}

			}
, 			{
				"patchline" : 				{
					"destination" : [ "obj-15", 0 ],
					"midpoints" : [ 88.499998092651367, 389.200000464916229, 51.800005376338959, 389.200000464916229 ],
					"source" : [ "obj-24", 0 ]
				}

			}
, 			{
				"patchline" : 				{
					"destination" : [ "obj-15", 0 ],
					"midpoints" : [ 103.499998092651367, 389.200000464916229, 51.800005376338959, 389.200000464916229 ],
					"source" : [ "obj-25", 0 ]
				}

			}
, 			{
				"patchline" : 				{
					"destination" : [ "obj-15", 0 ],
					"midpoints" : [ 133.499998092651367, 389.303149964916201, 51.800005376338959, 389.303149964916201 ],
					"source" : [ "obj-26", 0 ]
				}

			}
, 			{
				"patchline" : 				{
					"destination" : [ "obj-15", 0 ],
					"midpoints" : [ 148.499998092651367, 389.303149964916201, 51.800005376338959, 389.303149964916201 ],
					"source" : [ "obj-27", 0 ]
				}

			}
, 			{
				"patchline" : 				{
					"destination" : [ "obj-14", 0 ],
					"source" : [ "obj-32", 0 ]
				}

			}
 ],
		"parameters" : 		{
			"parameterbanks" : 			{

			}

		}
,
		"dependency_cache" : [ 			{
				"name" : "n4m.monitor.maxpat",
				"bootpath" : "C74:/packages/Node For Max/patchers/debug-monitor",
				"type" : "JSON",
				"implicit" : 1
			}
, 			{
				"name" : "resize_n4m_monitor_patcher.js",
				"bootpath" : "C74:/packages/Node For Max/patchers/debug-monitor",
				"type" : "TEXT",
				"implicit" : 1
			}
, 			{
				"name" : "fit_jweb_to_bounds.js",
				"bootpath" : "C74:/packages/Node For Max/patchers/debug-monitor",
				"type" : "TEXT",
				"implicit" : 1
			}
, 			{
				"name" : "usgs.js",
				"bootpath" : "~/Documents/_REPO/n4m-supplemental/usgs",
				"patcherrelativepath" : ".",
				"type" : "TEXT",
				"implicit" : 1
			}
 ],
		"autosave" : 0,
		"styles" : [ 			{
				"name" : "AudioStatus_Menu",
				"default" : 				{
					"bgfillcolor" : 					{
						"type" : "color",
						"color" : [ 0.294118, 0.313726, 0.337255, 1 ],
						"color1" : [ 0.454902, 0.462745, 0.482353, 0 ],
						"color2" : [ 0.290196, 0.309804, 0.301961, 1 ],
						"angle" : 270,
						"proportion" : 0.39,
						"autogradient" : 0
					}

				}
,
				"parentstyle" : "",
				"multi" : 0
			}
, 			{
				"name" : "light",
				"default" : 				{
					"textcolor_inverse" : [ 0.0, 0.0, 0.0, 1.0 ],
					"fontsize" : [ 32.0 ],
					"bgfillcolor" : 					{
						"type" : "color",
						"color1" : [ 1.0, 1.0, 1.0, 1.0 ],
						"color2" : [ 0.290196, 0.309804, 0.301961, 1.0 ],
						"color" : [ 0.65098, 0.666667, 0.662745, 1.0 ],
						"angle" : 270.0,
						"proportion" : 0.39,
						"autogradient" : 0.0
					}

				}
,
				"parentstyle" : "",
				"multi" : 0
			}
, 			{
				"name" : "tap-dark",
				"default" : 				{
					"locked_bgcolor" : [ 0.133333, 0.133333, 0.133333, 1.0 ],
					"textcolor" : [ 0.847058823529412, 0.847058823529412, 0.847058823529412, 1.0 ],
					"editing_bgcolor" : [ 0.133333, 0.133333, 0.133333, 1.0 ],
					"fontname" : [ "Ableton Sans Light Regular" ]
				}
,
				"parentstyle" : "",
				"multi" : 0
			}
 ]
	}

}
