{
	"patcher" : 	{
		"fileversion" : 1,
		"appversion" : 		{
			"major" : 8,
			"minor" : 0,
			"revision" : 4,
			"architecture" : "x64",
			"modernui" : 1
		}
,
		"classnamespace" : "box",
		"rect" : [ 34.0, 79.0, 1852.0, 1087.0 ],
		"bglocked" : 0,
		"openinpresentation" : 0,
		"default_fontsize" : 12.0,
		"default_fontface" : 0,
		"default_fontname" : "Arial",
		"gridonopen" : 1,
		"gridsize" : [ 15.0, 15.0 ],
		"gridsnaponopen" : 1,
		"objectsnaponopen" : 1,
		"statusbarvisible" : 2,
		"toolbarvisible" : 1,
		"lefttoolbarpinned" : 0,
		"toptoolbarpinned" : 0,
		"righttoolbarpinned" : 0,
		"bottomtoolbarpinned" : 0,
		"toolbars_unpinned_last_save" : 0,
		"tallnewobj" : 0,
		"boxanimatetime" : 200,
		"enablehscroll" : 1,
		"enablevscroll" : 1,
		"devicewidth" : 0.0,
		"description" : "",
		"digest" : "",
		"tags" : "",
		"style" : "",
		"subpatcher_template" : "",
		"boxes" : [ 			{
				"box" : 				{
					"id" : "obj-46",
					"maxclass" : "message",
					"numinlets" : 2,
					"numoutlets" : 1,
					"outlettype" : [ "" ],
					"patching_rect" : [ 768.0, 279.0, 50.0, 22.0 ],
					"text" : "fin"
				}

			}
, 			{
				"box" : 				{
					"id" : "obj-38",
					"maxclass" : "newobj",
					"numinlets" : 1,
					"numoutlets" : 1,
					"outlettype" : [ "" ],
					"patching_rect" : [ 874.0, 335.0, 57.0, 22.0 ],
					"text" : "match fin"
				}

			}
, 			{
				"box" : 				{
					"id" : "obj-36",
					"maxclass" : "newobj",
					"numinlets" : 0,
					"numoutlets" : 1,
					"outlettype" : [ "" ],
					"patching_rect" : [ 874.0, 311.0, 57.0, 22.0 ],
					"text" : "r output"
				}

			}
, 			{
				"box" : 				{
					"id" : "obj-35",
					"maxclass" : "newobj",
					"numinlets" : 1,
					"numoutlets" : 0,
					"patching_rect" : [ 147.0, 259.666662633419037, 51.0, 22.0 ],
					"text" : "s output"
				}

			}
, 			{
				"box" : 				{
					"clipheight" : 318.0,
					"data" : 					{
						"clips" : [ 							{
								"absolutepath" : "XC239740-Daurian%20Partridge-Chaka-May-2012.wav",
								"filename" : "XC239740-Daurian%20Partridge-Chaka-May-2012.wav",
								"filekind" : "audiofile",
								"loop" : 0,
								"content_state" : 								{
									"originallength" : [ 0.0, "ticks" ],
									"quality" : [ "basic" ],
									"originallengthms" : [ 0.0 ],
									"originaltempo" : [ 120.0 ],
									"basictuning" : [ 440 ],
									"formant" : [ 1.0 ],
									"pitchcorrection" : [ 0 ],
									"followglobaltempo" : [ 0 ],
									"slurtime" : [ 0.0 ],
									"timestretch" : [ 0 ],
									"formantcorrection" : [ 0 ],
									"mode" : [ "basic" ],
									"speed" : [ 1.0 ],
									"play" : [ 0 ],
									"pitchshift" : [ 1.0 ]
								}

							}
 ]
					}
,
					"id" : "obj-34",
					"maxclass" : "playlist~",
					"numinlets" : 1,
					"numoutlets" : 5,
					"outlettype" : [ "signal", "signal", "signal", "", "dictionary" ],
					"patching_rect" : [ 874.0, 457.0, 469.0, 319.0 ]
				}

			}
, 			{
				"box" : 				{
					"fontname" : "Arial",
					"fontsize" : 13.0,
					"id" : "obj-28",
					"maxclass" : "newobj",
					"numinlets" : 1,
					"numoutlets" : 1,
					"outlettype" : [ "" ],
					"patching_rect" : [ 931.0, 391.0, 95.0, 23.0 ],
					"text" : "prepend types"
				}

			}
, 			{
				"box" : 				{
					"fontface" : 0,
					"fontname" : "Arial",
					"fontsize" : 13.0,
					"id" : "obj-29",
					"items" : [ "AIFF", ",", "APPL", "(application)", ",", "BMP", ",", "DATA", ",", "FLAC", ",", "fold", ",", "GIFf", ",", "JPEG", ",", "JSON", ",", "MPEG", ",", "Midi", ",", "MooV", ",", "PICT", ",", "PNG", ",", "TEXT", ",", "TIFF", ",", "VfW", "(AVI", "file)", ",", "WAVE", ",", "aPcs", "(audio", "plugin)", ",", "iLaF", "(Max", "external", "-", "Mac)", ",", "iLaX", "(Max", "external", "-", "Win)" ],
					"maxclass" : "umenu",
					"numinlets" : 1,
					"numoutlets" : 3,
					"outlettype" : [ "int", "", "" ],
					"parameter_enable" : 0,
					"patching_rect" : [ 931.0, 359.0, 160.0, 23.0 ]
				}

			}
, 			{
				"box" : 				{
					"id" : "obj-25",
					"maxclass" : "button",
					"numinlets" : 1,
					"numoutlets" : 1,
					"outlettype" : [ "bang" ],
					"parameter_enable" : 0,
					"patching_rect" : [ 874.0, 359.0, 55.0, 55.0 ]
				}

			}
, 			{
				"box" : 				{
					"id" : "obj-23",
					"maxclass" : "newobj",
					"numinlets" : 1,
					"numoutlets" : 2,
					"outlettype" : [ "", "int" ],
					"patching_rect" : [ 874.0, 424.0, 371.0, 22.0 ],
					"text" : "folder /Users/csk/Documents/_REPO/n4m-supplemental/xeno-canto"
				}

			}
, 			{
				"box" : 				{
					"fontname" : "Trek TNG Credits",
					"fontsize" : 14.0,
					"id" : "obj-22",
					"maxclass" : "newobj",
					"numinlets" : 1,
					"numoutlets" : 0,
					"patching_rect" : [ 278.300005376338959, 224.400000929832458, 55.0, 27.0 ],
					"text" : "s clear"
				}

			}
, 			{
				"box" : 				{
					"id" : "obj-21",
					"maxclass" : "newobj",
					"numinlets" : 0,
					"numoutlets" : 1,
					"outlettype" : [ "" ],
					"patching_rect" : [ 93.800005376338959, 259.666662633419037, 50.0, 22.0 ],
					"text" : "r clear"
				}

			}
, 			{
				"box" : 				{
					"fontname" : "Trek TNG Credits",
					"fontsize" : 24.0,
					"id" : "obj-19",
					"maxclass" : "message",
					"numinlets" : 2,
					"numoutlets" : 1,
					"outlettype" : [ "" ],
					"patching_rect" : [ 363.800005376338959, 144.000001668930054, 160.0, 40.0 ],
					"presentation_linecount" : 3,
					"text" : "xc bulgaria 1",
					"textjustification" : 1
				}

			}
, 			{
				"box" : 				{
					"fontname" : "Trek TNG Credits",
					"fontsize" : 24.0,
					"id" : "obj-18",
					"maxclass" : "message",
					"numinlets" : 2,
					"numoutlets" : 1,
					"outlettype" : [ "" ],
					"patching_rect" : [ 238.800005376338959, 144.000001668930054, 123.0, 40.0 ],
					"text" : "xc china 1",
					"textjustification" : 1
				}

			}
, 			{
				"box" : 				{
					"fontname" : "Trek TNG Credits",
					"fontsize" : 24.0,
					"id" : "obj-11",
					"maxclass" : "message",
					"numinlets" : 2,
					"numoutlets" : 1,
					"outlettype" : [ "" ],
					"patching_rect" : [ 89.63333848118782, 693.0, 158.0, 40.0 ],
					"text" : "download $1",
					"textjustification" : 1
				}

			}
, 			{
				"box" : 				{
					"fontname" : "Trek TNG Credits",
					"fontsize" : 24.0,
					"id" : "obj-10",
					"maxclass" : "message",
					"numinlets" : 2,
					"numoutlets" : 1,
					"outlettype" : [ "" ],
					"patching_rect" : [ 89.800005376338959, 91.228913192092932, 304.0, 40.0 ],
					"text" : "script npm install shelljs",
					"textjustification" : 1
				}

			}
, 			{
				"box" : 				{
					"id" : "obj-75",
					"maxclass" : "message",
					"numinlets" : 2,
					"numoutlets" : 1,
					"outlettype" : [ "" ],
					"patching_rect" : [ 1974.200028598308563, 562.800007998943329, 29.5, 22.0 ],
					"text" : "44"
				}

			}
, 			{
				"box" : 				{
					"id" : "obj-71",
					"maxclass" : "message",
					"numinlets" : 2,
					"numoutlets" : 1,
					"outlettype" : [ "" ],
					"patching_rect" : [ 2034.200029492378235, 564.400008022785187, 79.0, 22.0 ],
					"text" : "%20Ethiopia,"
				}

			}
, 			{
				"box" : 				{
					"id" : "obj-69",
					"linecount" : 2,
					"maxclass" : "message",
					"numinlets" : 2,
					"numoutlets" : 1,
					"outlettype" : [ "" ],
					"patching_rect" : [ 1794.200025916099548, 517.200007319450378, 447.0, 35.0 ],
					"text" : "www.xeno-canto.org/sounds/uploaded/VROUALCTKG/XC305862-Chestnut-naped%20Francolin%20(song,"
				}

			}
, 			{
				"box" : 				{
					"id" : "obj-66",
					"linecount" : 3,
					"maxclass" : "message",
					"numinlets" : 2,
					"numoutlets" : 1,
					"outlettype" : [ "" ],
					"patching_rect" : [ 1922.200027823448181, 634.000009059906006, 255.600003063678741, 49.0 ],
					"text" : "www.xeno-canto.org/sounds/uploaded/VROUALCTKG/XC305862-Chestnut-naped%20Francolin%20(song%20Ethiopia"
				}

			}
, 			{
				"box" : 				{
					"id" : "obj-62",
					"maxclass" : "newobj",
					"numinlets" : 2,
					"numoutlets" : 1,
					"outlettype" : [ "" ],
					"patching_rect" : [ 1952.600028276443481, 598.000008523464203, 78.0, 22.0 ],
					"text" : "sprintf %s%s"
				}

			}
, 			{
				"box" : 				{
					"id" : "obj-42",
					"maxclass" : "newobj",
					"numinlets" : 1,
					"numoutlets" : 1,
					"outlettype" : [ "" ],
					"patching_rect" : [ 1962.200028419494629, 734.800010561943054, 71.0, 22.0 ],
					"text" : "fromsymbol"
				}

			}
, 			{
				"box" : 				{
					"id" : "obj-39",
					"maxclass" : "newobj",
					"numinlets" : 1,
					"numoutlets" : 1,
					"outlettype" : [ "" ],
					"patching_rect" : [ 1881.400027215480804, 748.400010764598846, 57.0, 22.0 ],
					"text" : "tosymbol"
				}

			}
, 			{
				"box" : 				{
					"id" : "obj-37",
					"maxclass" : "newobj",
					"numinlets" : 3,
					"numoutlets" : 1,
					"outlettype" : [ "int" ],
					"patching_rect" : [ 1784.000025749206543, 734.800010561943054, 63.0, 22.0 ],
					"text" : "itoa @utf8"
				}

			}
, 			{
				"box" : 				{
					"id" : "obj-9",
					"maxclass" : "newobj",
					"numinlets" : 1,
					"numoutlets" : 3,
					"outlettype" : [ "int", "int", "" ],
					"patching_rect" : [ 35.63333848118782, 669.0, 73.0, 22.0 ],
					"text" : "unpack 0 0 l"
				}

			}
, 			{
				"box" : 				{
					"id" : "obj-88",
					"maxclass" : "message",
					"numinlets" : 2,
					"numoutlets" : 1,
					"outlettype" : [ "" ],
					"patching_rect" : [ 93.800005376338959, 283.666662633419037, 50.0, 22.0 ],
					"text" : "clear all"
				}

			}
, 			{
				"box" : 				{
					"id" : "obj-67",
					"maxclass" : "message",
					"numinlets" : 2,
					"numoutlets" : 1,
					"outlettype" : [ "" ],
					"patching_rect" : [ 93.800005376338959, 313.166666686534882, 29.5, 22.0 ],
					"text" : "0"
				}

			}
, 			{
				"box" : 				{
					"id" : "obj-65",
					"maxclass" : "newobj",
					"numinlets" : 1,
					"numoutlets" : 1,
					"outlettype" : [ "" ],
					"patching_rect" : [ 35.63333848118782, 406.0, 72.0, 22.0 ],
					"text" : "prepend set"
				}

			}
, 			{
				"box" : 				{
					"cols" : 1,
					"colwidth" : 740,
					"fontface" : 0,
					"fontname" : "Arial",
					"fontsize" : 12.0,
					"id" : "obj-64",
					"maxclass" : "jit.cellblock",
					"numinlets" : 2,
					"numoutlets" : 4,
					"outlettype" : [ "list", "", "", "" ],
					"patching_rect" : [ 35.63333848118782, 438.333333432674408, 762.0, 228.666666567325592 ],
					"rowheight" : 30,
					"rows" : 500
				}

			}
, 			{
				"box" : 				{
					"id" : "obj-61",
					"maxclass" : "newobj",
					"numinlets" : 3,
					"numoutlets" : 1,
					"outlettype" : [ "" ],
					"patching_rect" : [ 35.63333848118782, 382.0, 72.333333790302277, 22.0 ],
					"text" : "pak 0 0 s"
				}

			}
, 			{
				"box" : 				{
					"id" : "obj-60",
					"maxclass" : "number",
					"numinlets" : 1,
					"numoutlets" : 2,
					"outlettype" : [ "", "bang" ],
					"parameter_enable" : 0,
					"patching_rect" : [ 109.850001305341721, 382.0, 50.0, 22.0 ]
				}

			}
, 			{
				"box" : 				{
					"id" : "obj-58",
					"maxclass" : "button",
					"numinlets" : 1,
					"numoutlets" : 1,
					"outlettype" : [ "bang" ],
					"parameter_enable" : 0,
					"patching_rect" : [ 62.300005376338959, 313.166666686534882, 24.0, 24.0 ]
				}

			}
, 			{
				"box" : 				{
					"id" : "obj-56",
					"maxclass" : "newobj",
					"numinlets" : 5,
					"numoutlets" : 4,
					"outlettype" : [ "int", "", "", "int" ],
					"patching_rect" : [ 62.300005376338959, 341.666668057441711, 61.0, 22.0 ],
					"text" : "counter"
				}

			}
, 			{
				"box" : 				{
					"bgmode" : 0,
					"border" : 0,
					"clickthrough" : 0,
					"enablehscroll" : 0,
					"enablevscroll" : 0,
					"id" : "obj-3",
					"lockeddragscroll" : 0,
					"maxclass" : "bpatcher",
					"name" : "n4m.monitor.maxpat",
					"numinlets" : 1,
					"numoutlets" : 1,
					"offset" : [ 0.0, 0.0 ],
					"outlettype" : [ "bang" ],
					"patching_rect" : [ 257.300005376338959, 283.666662633419037, 289.333330035209656, 144.333337366580963 ],
					"viewvisibility" : 1
				}

			}
, 			{
				"box" : 				{
					"fontname" : "Trek TNG Credits",
					"fontsize" : 24.0,
					"id" : "obj-2",
					"maxclass" : "message",
					"numinlets" : 2,
					"numoutlets" : 1,
					"outlettype" : [ "" ],
					"patching_rect" : [ 79.800005376338959, 144.000001668930054, 157.0, 40.0 ],
					"text" : "xc ethiopia 1",
					"textjustification" : 1
				}

			}
, 			{
				"box" : 				{
					"fontname" : "Trek TNG Credits",
					"fontsize" : 24.0,
					"id" : "obj-30",
					"maxclass" : "message",
					"numinlets" : 2,
					"numoutlets" : 1,
					"outlettype" : [ "" ],
					"patching_rect" : [ 75.450009286403656, 49.228913192092932, 149.0, 40.0 ],
					"text" : "script stop",
					"textjustification" : 1
				}

			}
, 			{
				"box" : 				{
					"fontname" : "Trek TNG Credits",
					"fontsize" : 24.0,
					"id" : "obj-31",
					"maxclass" : "message",
					"numinlets" : 2,
					"numoutlets" : 1,
					"outlettype" : [ "" ],
					"patching_rect" : [ 62.300005376338959, 6.0, 155.0, 40.0 ],
					"text" : "script start",
					"textjustification" : 1
				}

			}
, 			{
				"box" : 				{
					"fontname" : "Trek TNG Credits",
					"fontsize" : 14.0,
					"id" : "obj-32",
					"maxclass" : "newobj",
					"numinlets" : 1,
					"numoutlets" : 2,
					"outlettype" : [ "", "" ],
					"patching_rect" : [ 62.300005376338959, 224.400000929832458, 200.0, 27.0 ],
					"saved_object_attributes" : 					{
						"autostart" : 0,
						"defer" : 0,
						"node_bin_path" : "",
						"npm_bin_path" : "",
						"watch" : 0
					}
,
					"text" : "node.script xeno-canto-v1.js"
				}

			}
 ],
		"lines" : [ 			{
				"patchline" : 				{
					"destination" : [ "obj-32", 0 ],
					"midpoints" : [ 99.300005376338959, 137.66666454076767, 71.800005376338959, 137.66666454076767 ],
					"source" : [ "obj-10", 0 ]
				}

			}
, 			{
				"patchline" : 				{
					"destination" : [ "obj-32", 0 ],
					"midpoints" : [ 99.13333848118782, 741.666666865348816, 804.40001380443573, 741.666666865348816, 804.40001380443573, 219.0, 71.800005376338959, 219.0 ],
					"source" : [ "obj-11", 0 ]
				}

			}
, 			{
				"patchline" : 				{
					"destination" : [ "obj-22", 0 ],
					"order" : 0,
					"source" : [ "obj-18", 0 ]
				}

			}
, 			{
				"patchline" : 				{
					"destination" : [ "obj-32", 0 ],
					"order" : 1,
					"source" : [ "obj-18", 0 ]
				}

			}
, 			{
				"patchline" : 				{
					"destination" : [ "obj-22", 0 ],
					"order" : 0,
					"source" : [ "obj-19", 0 ]
				}

			}
, 			{
				"patchline" : 				{
					"destination" : [ "obj-32", 0 ],
					"order" : 1,
					"source" : [ "obj-19", 0 ]
				}

			}
, 			{
				"patchline" : 				{
					"destination" : [ "obj-22", 0 ],
					"order" : 0,
					"source" : [ "obj-2", 0 ]
				}

			}
, 			{
				"patchline" : 				{
					"destination" : [ "obj-32", 0 ],
					"order" : 1,
					"source" : [ "obj-2", 0 ]
				}

			}
, 			{
				"patchline" : 				{
					"destination" : [ "obj-88", 0 ],
					"source" : [ "obj-21", 0 ]
				}

			}
, 			{
				"patchline" : 				{
					"destination" : [ "obj-34", 0 ],
					"source" : [ "obj-23", 0 ]
				}

			}
, 			{
				"patchline" : 				{
					"destination" : [ "obj-23", 0 ],
					"source" : [ "obj-25", 0 ]
				}

			}
, 			{
				"patchline" : 				{
					"destination" : [ "obj-23", 0 ],
					"midpoints" : [ 940.5, 418.5, 883.5, 418.5 ],
					"source" : [ "obj-28", 0 ]
				}

			}
, 			{
				"patchline" : 				{
					"destination" : [ "obj-28", 0 ],
					"midpoints" : [ 1011.0, 386.0, 940.5, 386.0 ],
					"source" : [ "obj-29", 1 ]
				}

			}
, 			{
				"patchline" : 				{
					"destination" : [ "obj-32", 0 ],
					"midpoints" : [ 84.950009286403656, 138.999998092651367, 71.800005376338959, 138.999998092651367 ],
					"source" : [ "obj-30", 0 ]
				}

			}
, 			{
				"patchline" : 				{
					"destination" : [ "obj-32", 0 ],
					"source" : [ "obj-31", 0 ]
				}

			}
, 			{
				"patchline" : 				{
					"destination" : [ "obj-3", 0 ],
					"source" : [ "obj-32", 1 ]
				}

			}
, 			{
				"patchline" : 				{
					"destination" : [ "obj-35", 0 ],
					"midpoints" : [ 71.800005376338959, 255.033331781625748, 156.5, 255.033331781625748 ],
					"order" : 1,
					"source" : [ "obj-32", 0 ]
				}

			}
, 			{
				"patchline" : 				{
					"destination" : [ "obj-46", 1 ],
					"order" : 0,
					"source" : [ "obj-32", 0 ]
				}

			}
, 			{
				"patchline" : 				{
					"destination" : [ "obj-58", 0 ],
					"order" : 3,
					"source" : [ "obj-32", 0 ]
				}

			}
, 			{
				"patchline" : 				{
					"destination" : [ "obj-61", 2 ],
					"order" : 2,
					"source" : [ "obj-32", 0 ]
				}

			}
, 			{
				"patchline" : 				{
					"destination" : [ "obj-38", 0 ],
					"source" : [ "obj-36", 0 ]
				}

			}
, 			{
				"patchline" : 				{
					"destination" : [ "obj-39", 0 ],
					"order" : 1,
					"source" : [ "obj-37", 0 ]
				}

			}
, 			{
				"patchline" : 				{
					"destination" : [ "obj-42", 0 ],
					"order" : 0,
					"source" : [ "obj-37", 0 ]
				}

			}
, 			{
				"patchline" : 				{
					"destination" : [ "obj-25", 0 ],
					"source" : [ "obj-38", 0 ]
				}

			}
, 			{
				"patchline" : 				{
					"destination" : [ "obj-60", 0 ],
					"order" : 0,
					"source" : [ "obj-56", 0 ]
				}

			}
, 			{
				"patchline" : 				{
					"destination" : [ "obj-61", 1 ],
					"order" : 1,
					"source" : [ "obj-56", 0 ]
				}

			}
, 			{
				"patchline" : 				{
					"destination" : [ "obj-56", 0 ],
					"source" : [ "obj-58", 0 ]
				}

			}
, 			{
				"patchline" : 				{
					"destination" : [ "obj-65", 0 ],
					"source" : [ "obj-61", 0 ]
				}

			}
, 			{
				"patchline" : 				{
					"destination" : [ "obj-66", 1 ],
					"source" : [ "obj-62", 0 ]
				}

			}
, 			{
				"patchline" : 				{
					"destination" : [ "obj-9", 0 ],
					"source" : [ "obj-64", 0 ]
				}

			}
, 			{
				"patchline" : 				{
					"destination" : [ "obj-64", 0 ],
					"source" : [ "obj-65", 0 ]
				}

			}
, 			{
				"patchline" : 				{
					"destination" : [ "obj-56", 3 ],
					"source" : [ "obj-67", 0 ]
				}

			}
, 			{
				"patchline" : 				{
					"destination" : [ "obj-62", 0 ],
					"source" : [ "obj-69", 0 ]
				}

			}
, 			{
				"patchline" : 				{
					"destination" : [ "obj-62", 1 ],
					"source" : [ "obj-71", 0 ]
				}

			}
, 			{
				"patchline" : 				{
					"destination" : [ "obj-62", 1 ],
					"source" : [ "obj-75", 0 ]
				}

			}
, 			{
				"patchline" : 				{
					"destination" : [ "obj-64", 0 ],
					"midpoints" : [ 103.300005376338959, 310.000000476837158, 166.000004291534424, 310.000000476837158, 166.000004291534424, 432.333333075046539, 45.13333848118782, 432.333333075046539 ],
					"order" : 1,
					"source" : [ "obj-88", 0 ]
				}

			}
, 			{
				"patchline" : 				{
					"destination" : [ "obj-67", 0 ],
					"order" : 0,
					"source" : [ "obj-88", 0 ]
				}

			}
, 			{
				"patchline" : 				{
					"destination" : [ "obj-11", 0 ],
					"source" : [ "obj-9", 2 ]
				}

			}
 ],
		"dependency_cache" : [ 			{
				"name" : "xeno-canto-v1.js",
				"bootpath" : "~/Documents/_REPO/n4m-supplemental/xeno-canto",
				"patcherrelativepath" : ".",
				"type" : "TEXT",
				"implicit" : 1
			}
, 			{
				"name" : "n4m.monitor.maxpat",
				"bootpath" : "C74:/packages/Node For Max/patchers/debug-monitor",
				"type" : "JSON",
				"implicit" : 1
			}
, 			{
				"name" : "resize_n4m_monitor_patcher.js",
				"bootpath" : "C74:/packages/Node For Max/patchers/debug-monitor",
				"type" : "TEXT",
				"implicit" : 1
			}
, 			{
				"name" : "fit_jweb_to_bounds.js",
				"bootpath" : "C74:/packages/Node For Max/patchers/debug-monitor",
				"type" : "TEXT",
				"implicit" : 1
			}
 ],
		"autosave" : 0,
		"styles" : [ 			{
				"name" : "AudioStatus_Menu",
				"default" : 				{
					"bgfillcolor" : 					{
						"type" : "color",
						"color" : [ 0.294118, 0.313726, 0.337255, 1 ],
						"color1" : [ 0.454902, 0.462745, 0.482353, 0 ],
						"color2" : [ 0.290196, 0.309804, 0.301961, 1 ],
						"angle" : 270,
						"proportion" : 0.39,
						"autogradient" : 0
					}

				}
,
				"parentstyle" : "",
				"multi" : 0
			}
, 			{
				"name" : "light",
				"default" : 				{
					"textcolor_inverse" : [ 0.0, 0.0, 0.0, 1.0 ],
					"bgfillcolor" : 					{
						"type" : "color",
						"color1" : [ 1.0, 1.0, 1.0, 1.0 ],
						"color2" : [ 0.290196, 0.309804, 0.301961, 1.0 ],
						"color" : [ 0.65098, 0.666667, 0.662745, 1.0 ],
						"angle" : 270.0,
						"proportion" : 0.39,
						"autogradient" : 0.0
					}
,
					"fontsize" : [ 32.0 ]
				}
,
				"parentstyle" : "",
				"multi" : 0
			}
, 			{
				"name" : "tap-dark",
				"default" : 				{
					"locked_bgcolor" : [ 0.133333, 0.133333, 0.133333, 1.0 ],
					"textcolor" : [ 0.847058823529412, 0.847058823529412, 0.847058823529412, 1.0 ],
					"editing_bgcolor" : [ 0.133333, 0.133333, 0.133333, 1.0 ],
					"fontname" : [ "Ableton Sans Light Regular" ]
				}
,
				"parentstyle" : "",
				"multi" : 0
			}
 ]
	}

}
